<?xml version="1.0" encoding="utf-8"?>
<?xml-stylesheet type="text/css" href="style.css"?>
<svg width="500" height="500" viewBox="0 0 512 512" xmlns="http://www.w3.org/2000/svg">
    
  <path class="first" d="M 256.0000915527344 28.7387752532959 L 256.000244140625 134.61305236816406 L 151.46568298339844 195.2757568359375 L 151.46568298339844 195.29661560058594 L 60.243751525878906 142.35943603515625 L 60.243751525878906 142.3386993408203 L 256.0000915527344 28.7387752532959 Z "/>
    
  <path class="second" d="M 255.99998474121094 28.73868751525879 L 255.9997100830078 134.61297607421875 L 360.5343017578125 195.2757568359375 L 360.5343017578125 195.29653930664062 L 451.75628662109375 142.35935974121094 L 451.75628662109375 142.3386993408203 L 255.99998474121094 28.73868751525879 Z "/>
    
  <path class="third" d="M 250.00009155273438 440.28448486328125 L 250.0002899169922 351.6125793457031 L 338.98736572265625 301.9682312011719 L 248.87985229492188 251.69432067871094 L 85.20885467529297 345.1248474121094 L 85.20885467529297 345.1421813964844 L 250.00009155273438 440.28448486328125 Z " transform="matrix(1.1605807542800903, 0, 0, 1.1605807542800903, 322.60861089070636, 539.2170954895018)"/>
    
  <path class="fourth" d="M 255.99998474121094 483.13824462890625 L 255.9997100830078 377.2640075683594 L 360.5343017578125 316.6011962890625 L 360.5343017578125 316.5804748535156 L 451.75628662109375 369.5176086425781 L 451.75628662109375 369.538330078125 L 255.99998474121094 483.13824462890625 Z "/>
    
  <path class="fifth" d="M 60.24371337890625 369.5176086425781 L 60.24371337890625 142.3386993408203 L 151.46560668945312 195.29649353027344 L 151.46560668945312 316.5804748535156 Z "/>
    
  <path class="sixth" d="M 451.756103515625 369.5176086425781 L 451.756103515625 142.3386993408203 L 360.5343017578125 195.29653930664062 L 360.5343017578125 316.5804748535156 Z "/>
    
  <path class="seventh" d="M 256.0000915527344 28.7387752532959 L 256.000244140625 134.61305236816406 L 361.3393859863281 196.2377471923828 L 253.85899353027344 256.994873046875 L 60.243751525878906 142.35943603515625 L 60.243751525878906 142.3386993408203 L 256.0000915527344 28.7387752532959 Z "/>
    
  <path class="eighth" d="M 256.2558898925781 483.26123046875 L 256.2560729980469 377.38702392578125 L 151.7214813232422 316.7242431640625 L 60.49959945678711 369.64056396484375 L 60.49959945678711 369.6612854003906 L 256.2558898925781 483.26123046875 Z "/>
</svg>